<?xml version="1.0" encoding="utf-8"?>
<!-- Generator: Moho 14.1 build 20231027 -->
<!DOCTYPE svg PUBLIC "-//W3C//DTD SVG 1.1//EN" "http://www.w3.org/Graphics/SVG/1.1/DTD/svg11.dtd">
<svg version="1.1" id="Frame_0" xmlns="http://www.w3.org/2000/svg" xmlns:xlink="http://www.w3.org/1999/xlink" width="80px" height="50px">
<path id="S1" fill="#000000" fill-rule="evenodd" stroke="none" d="M 17.141 2.900 C 29.059 -3.152 43.555 1.579 49.608 13.497 C 55.660 25.415 50.928 39.912 39.011 45.964 C 27.093 52.016 12.596 47.285 6.544 35.367 C 0.492 23.449 5.223 8.953 17.141 2.900 Z"/>
<path id="S2" fill="#000000" fill-rule="evenodd" stroke="none" d="M 77.827 39.782 C 77.826 39.783 69.650 43.157 65.996 44.134 C 55.997 46.808 42.236 49.625 31.889 49.339 C 28.377 49.242 20.355 47.309 20.354 47.309 C 20.355 47.307 31.126 29.120 31.127 29.118 C 31.129 29.117 50.591 15.567 50.593 15.566 C 50.594 15.567 54.752 25.126 57.657 28.437 C 60.083 31.203 64.271 33.987 67.492 35.764 C 70.405 37.371 77.826 39.782 77.827 39.782 Z"/>
</svg>
