<?xml version="1.0" encoding="utf-8"?>
<!-- Generator: Moho 14.1 build 20231027 -->
<!DOCTYPE svg PUBLIC "-//W3C//DTD SVG 1.1//EN" "http://www.w3.org/Graphics/SVG/1.1/DTD/svg11.dtd">
<svg version="1.1" id="Frame_0" xmlns="http://www.w3.org/2000/svg" xmlns:xlink="http://www.w3.org/1999/xlink" width="220px" height="124px">
<g id="Layer_4">
<path id="S1" fill="#02b59a" fill-rule="evenodd" stroke="none" d="M 151.853 14.603 C 151.856 14.603 183.850 14.603 183.853 14.603 C 183.856 14.608 215.850 62.598 215.853 62.603 C 215.850 62.608 183.856 110.598 183.853 110.603 C 183.850 110.603 151.856 110.603 151.853 110.603 C 151.856 110.598 183.850 62.608 183.853 62.603 C 183.850 62.598 151.856 14.608 151.853 14.603 Z"/>
<path id="S3" fill="none" stroke="#02b59a" stroke-width="2" stroke-linecap="round" stroke-linejoin="round" d="M 151.853 22.603 C 114.520 22.603 39.857 22.603 39.853 22.603 "/>
<path id="S2_2" fill="#02b59a" fill-rule="evenodd" stroke="none" d="M 39.853 99.099 C 37.929 99.099 36.405 100.679 36.405 102.603 C 36.405 104.527 37.929 106.107 39.853 106.107 C 41.777 106.107 43.301 104.527 43.301 102.603 C 43.301 100.679 41.777 99.099 39.853 99.099 Z"/>
<path id="S3_2" fill="none" stroke="#02b59a" stroke-width="2" stroke-linecap="round" stroke-linejoin="round" d="M 151.853 102.603 C 114.520 102.603 39.857 102.603 39.853 102.603 "/>
<path id="S6" fill="none" stroke="#02b59a" stroke-width="2" stroke-linecap="round" stroke-linejoin="round" d="M 143.853 30.603 C 143.839 30.603 7.867 30.603 7.853 30.603 M 7.853 86.603 C 7.867 86.603 143.839 86.603 143.853 86.603 "/>
<path id="S2_2_2" fill="#02b59a" fill-rule="evenodd" stroke="none" d="M 39.853 19.158 C 37.929 19.158 36.405 20.739 36.405 22.663 C 36.405 24.587 37.929 26.167 39.853 26.167 C 41.777 26.167 43.301 24.587 43.301 22.663 C 43.301 20.739 41.777 19.158 39.853 19.158 Z"/>
<path id="S7" fill="none" stroke="#02b59a" stroke-width="2" stroke-linecap="round" stroke-linejoin="round" d="M 79.853 38.603 C 53.186 38.603 -0.144 38.603 -0.147 38.603 "/>
<path id="S7_2" fill="none" stroke="#02b59a" stroke-width="2" stroke-linecap="round" stroke-linejoin="round" d="M 79.853 78.603 C 53.186 78.603 -0.144 78.603 -0.147 78.603 "/>
<g id="Layer_5">
<path id="S2_2" fill="#008974" fill-rule="evenodd" stroke="none" d="M 127.935 55.338 C 127.988 55.675 128.175 56.097 128.303 56.413 C 128.469 56.822 128.722 57.356 128.937 57.741 C 129.201 58.214 129.579 58.835 129.919 59.256 C 130.152 59.544 130.495 59.905 130.785 60.136 C 131.116 60.400 131.619 60.666 131.987 60.874 C 132.509 61.170 133.761 61.794 133.761 61.794 C 133.761 61.794 133.288 60.720 133.066 60.269 C 132.796 59.721 132.407 59.005 132.110 58.472 C 131.833 57.976 131.486 57.298 131.156 56.836 C 130.872 56.438 130.459 55.925 130.092 55.601 C 129.750 55.298 129.260 54.900 128.827 54.753 C 128.574 54.667 128.128 54.481 127.939 54.670 C 127.799 54.809 127.905 55.140 127.935 55.338 Z"/>
<path id="S2" fill="#008974" fill-rule="evenodd" stroke="none" d="M 122.215 53.227 C 122.348 53.711 122.721 54.286 122.992 54.708 C 123.407 55.353 124.028 56.176 124.573 56.716 C 125.082 57.220 125.853 57.801 126.461 58.181 C 126.821 58.406 127.343 58.633 127.726 58.818 C 128.270 59.080 128.994 59.432 129.553 59.660 C 129.951 59.822 130.902 60.143 130.903 60.144 C 130.902 60.143 130.255 59.043 129.955 58.586 C 129.578 58.011 129.051 57.259 128.631 56.716 C 128.159 56.106 127.527 55.288 126.972 54.753 C 126.457 54.257 125.699 53.667 125.097 53.280 C 124.558 52.933 123.831 52.407 123.199 52.295 C 122.887 52.241 122.343 52.141 122.148 52.390 C 121.996 52.585 122.148 52.984 122.215 53.227 Z"/>
<path id="S1" fill="#519a66" fill-rule="evenodd" stroke="none" d="M 163.531 68.499 C 163.531 68.498 163.265 67.023 163.066 66.413 C 162.481 64.617 161.537 62.225 160.432 60.692 C 159.038 58.760 156.682 56.447 154.584 55.318 C 152.652 54.278 149.686 53.610 147.494 53.522 C 145.524 53.442 142.929 54.136 141.011 54.590 C 139.713 54.897 137.964 55.316 136.759 55.889 C 135.882 56.305 134.236 56.711 134.055 57.665 C 133.963 58.146 134.400 58.863 134.827 59.102 C 135.343 59.391 136.205 59.013 136.792 58.944 C 137.733 58.833 138.976 58.598 139.912 58.450 C 140.977 58.281 142.398 57.716 143.463 57.886 C 143.948 57.964 144.570 58.259 144.952 58.568 C 145.235 58.797 145.649 59.168 145.690 59.530 C 145.746 60.011 145.304 60.623 144.971 60.975 C 144.449 61.527 143.449 61.903 142.736 62.165 C 141.957 62.451 140.858 62.683 140.030 62.748 C 139.238 62.810 138.168 62.733 137.383 62.605 C 136.194 62.412 134.635 61.960 133.520 61.502 C 132.492 61.080 131.261 60.225 130.267 59.727 C 129.028 59.107 127.328 58.377 126.063 57.811 C 125.094 57.376 123.820 56.752 122.824 56.382 C 122.110 56.118 121.119 55.393 120.396 55.635 C 119.955 55.783 119.395 56.365 119.407 56.830 C 119.422 57.402 120.307 57.823 120.748 58.188 C 121.754 59.020 123.331 59.806 124.405 60.550 C 125.777 61.501 127.473 62.958 128.869 63.873 C 129.856 64.520 131.199 65.354 132.273 65.844 C 133.271 66.299 134.668 66.763 135.731 67.037 C 136.899 67.338 138.490 67.634 139.693 67.720 C 140.811 67.800 142.314 67.737 143.429 67.623 C 144.762 67.487 146.504 67.058 147.823 66.822 C 149.295 66.560 151.243 66.068 152.735 65.965 C 154.124 65.868 156.005 65.863 157.374 66.118 C 158.816 66.386 160.688 67.055 161.988 67.734 C 162.437 67.969 163.531 68.498 163.531 68.499 Z"/>
</g>
<path id="S1" fill="#25657f" fill-rule="evenodd" stroke="none" d="M 18.254 60.468 C 18.254 57.816 18.254 55.163 18.254 52.510 C 18.254 51.704 18.220 51.191 18.153 50.970 C 18.091 50.741 17.959 50.627 17.758 50.627 C 17.588 50.627 17.456 50.720 17.363 50.905 C 17.275 51.084 17.231 51.619 17.231 52.510 C 17.231 55.206 17.231 57.901 17.231 60.597 C 17.231 61.602 17.260 62.223 17.316 62.458 C 17.378 62.693 17.518 62.811 17.735 62.811 C 17.957 62.811 18.099 62.675 18.161 62.404 C 18.223 62.133 18.254 61.488 18.254 60.468 M 21.515 55.238 C 21.515 56.225 21.515 57.213 21.515 58.201 C 21.515 59.941 21.484 61.174 21.422 61.902 C 21.365 62.622 21.179 63.282 20.864 63.881 C 20.554 64.480 20.133 64.940 19.601 65.260 C 19.070 65.581 18.450 65.742 17.742 65.742 C 17.071 65.742 16.467 65.592 15.930 65.293 C 15.398 64.986 14.969 64.530 14.644 63.923 C 14.319 63.317 14.125 62.658 14.063 61.944 C 14.001 61.231 13.970 59.983 13.970 58.201 C 13.970 57.213 13.970 56.225 13.970 55.238 C 13.970 53.498 13.999 52.267 14.055 51.547 C 14.117 50.820 14.303 50.157 14.613 49.558 C 14.928 48.959 15.352 48.499 15.883 48.178 C 16.415 47.857 17.035 47.696 17.742 47.696 C 18.414 47.696 19.015 47.850 19.547 48.156 C 20.084 48.456 20.516 48.909 20.841 49.515 C 21.166 50.121 21.360 50.781 21.422 51.494 C 21.484 52.207 21.515 53.455 21.515 55.238 Z"/>
<path id="S2" fill="#25657f" fill-rule="evenodd" stroke="none" d="M 28.517 55.569 C 28.992 55.790 29.346 56.154 29.578 56.660 C 29.811 57.159 29.927 58.336 29.927 60.190 C 29.927 61.567 29.813 62.636 29.586 63.399 C 29.359 64.155 28.966 64.733 28.409 65.132 C 27.851 65.524 27.136 65.720 26.263 65.720 C 25.272 65.720 24.492 65.492 23.924 65.036 C 23.361 64.572 22.989 64.009 22.808 63.346 C 22.633 62.675 22.545 61.517 22.545 59.869 C 22.545 59.413 22.545 58.957 22.545 58.500 C 23.588 58.500 24.631 58.500 25.674 58.500 C 25.674 59.438 25.674 60.376 25.674 61.313 C 25.674 62.062 25.705 62.540 25.767 62.747 C 25.834 62.946 25.979 63.046 26.201 63.046 C 26.444 63.046 26.604 62.918 26.681 62.661 C 26.759 62.404 26.797 61.734 26.797 60.650 C 26.797 60.251 26.797 59.852 26.797 59.452 C 26.797 58.789 26.743 58.304 26.635 57.997 C 26.526 57.691 26.366 57.491 26.155 57.398 C 25.943 57.299 25.532 57.241 24.923 57.227 C 24.923 56.389 24.923 55.551 24.923 54.713 C 25.667 54.713 26.126 54.674 26.302 54.596 C 26.477 54.517 26.604 54.346 26.681 54.082 C 26.759 53.819 26.797 53.405 26.797 52.842 C 26.797 52.521 26.797 52.200 26.797 51.879 C 26.797 51.273 26.751 50.873 26.658 50.681 C 26.570 50.488 26.431 50.392 26.240 50.392 C 26.023 50.392 25.873 50.495 25.790 50.702 C 25.713 50.902 25.674 51.333 25.674 51.996 C 25.674 52.471 25.674 52.945 25.674 53.419 C 24.631 53.419 23.588 53.419 22.545 53.419 C 22.545 52.927 22.545 52.435 22.545 51.943 C 22.545 50.289 22.819 49.173 23.366 48.595 C 23.913 48.010 24.784 47.718 25.976 47.718 C 27.469 47.718 28.481 48.121 29.013 48.927 C 29.545 49.732 29.811 50.852 29.811 52.285 C 29.811 53.255 29.715 53.958 29.524 54.393 C 29.333 54.820 28.997 55.213 28.517 55.569 Z"/>
<path id="S3" fill="#25657f" fill-rule="evenodd" stroke="none" d="M 34.791 61.741 C 35.372 61.741 35.953 61.741 36.534 61.741 C 36.534 58.318 36.534 54.895 36.534 51.472 C 36.211 51.472 35.889 51.472 35.566 51.472 C 35.566 54.917 35.308 58.297 34.791 61.741 M 35.566 51.472 C 35.566 51.515 35.566 51.558 35.566 51.601 M 40.469 61.741 C 40.469 63.948 40.469 66.155 40.469 68.363 C 39.718 68.362 38.966 68.362 38.215 68.363 C 38.215 67.368 38.215 66.373 38.215 65.378 C 36.459 65.378 34.703 65.378 32.948 65.378 C 32.948 66.373 32.948 67.368 32.948 68.363 C 32.199 68.362 31.450 68.362 30.701 68.363 C 30.701 66.163 30.701 63.963 30.701 61.763 C 30.923 61.763 31.146 61.763 31.368 61.763 C 31.719 60.344 32.005 58.479 32.227 56.168 C 32.455 53.851 32.568 51.319 32.568 48.574 C 32.568 48.399 32.568 48.224 32.568 48.049 C 34.980 48.050 37.391 48.050 39.803 48.049 C 39.803 52.613 39.803 57.177 39.803 61.741 C 40.025 61.741 40.247 61.741 40.469 61.741 Z"/>
<path id="S4" fill="#25657f" fill-rule="evenodd" stroke="none" d="M 45.674 60.468 C 45.674 57.816 45.674 55.163 45.674 52.510 C 45.674 51.704 45.641 51.191 45.574 50.970 C 45.512 50.741 45.380 50.627 45.179 50.627 C 45.008 50.627 44.876 50.720 44.783 50.905 C 44.696 51.084 44.652 51.619 44.652 52.510 C 44.652 55.206 44.652 57.901 44.652 60.597 C 44.652 61.602 44.680 62.223 44.737 62.458 C 44.799 62.693 44.938 62.811 45.155 62.811 C 45.377 62.811 45.519 62.675 45.581 62.404 C 45.643 62.133 45.674 61.488 45.674 60.468 M 48.935 55.238 C 48.935 56.225 48.935 57.213 48.935 58.201 C 48.935 59.941 48.904 61.174 48.842 61.902 C 48.786 62.622 48.600 63.282 48.285 63.881 C 47.975 64.480 47.554 64.940 47.022 65.260 C 46.490 65.581 45.871 65.742 45.163 65.742 C 44.492 65.742 43.888 65.592 43.351 65.293 C 42.819 64.986 42.390 64.530 42.065 63.923 C 41.739 63.317 41.546 62.658 41.484 61.944 C 41.422 61.231 41.391 59.983 41.391 58.201 C 41.391 57.213 41.391 56.225 41.391 55.238 C 41.391 53.498 41.419 52.267 41.476 51.547 C 41.538 50.820 41.724 50.157 42.034 49.558 C 42.349 48.959 42.772 48.499 43.304 48.178 C 43.836 47.857 44.456 47.696 45.163 47.696 C 45.834 47.696 46.436 47.850 46.968 48.156 C 47.505 48.456 47.936 48.909 48.261 49.515 C 48.587 50.121 48.780 50.781 48.842 51.494 C 48.904 52.207 48.935 53.455 48.935 55.238 Z"/>
<path id="S5" fill="#25657f" fill-rule="evenodd" stroke="none" d="M 54.249 51.291 C 54.115 51.112 53.836 51.023 53.412 51.023 C 53.412 52.492 53.412 53.961 53.412 55.430 C 53.505 55.437 53.585 55.441 53.653 55.441 C 53.952 55.441 54.159 55.341 54.272 55.141 C 54.391 54.935 54.450 54.510 54.450 53.868 C 54.450 53.394 54.450 52.920 54.450 52.446 C 54.450 51.854 54.383 51.469 54.249 51.291 M 50.151 65.378 C 50.151 59.606 50.151 53.833 50.151 48.060 C 51.246 48.060 52.341 48.060 53.436 48.060 C 54.324 48.060 55.006 48.156 55.481 48.349 C 55.961 48.541 56.320 48.820 56.557 49.183 C 56.800 49.547 56.963 49.989 57.045 50.510 C 57.133 51.023 57.177 51.822 57.177 52.906 C 57.177 53.409 57.177 53.911 57.177 54.414 C 57.177 55.519 57.094 56.325 56.929 56.831 C 56.764 57.338 56.459 57.726 56.015 57.997 C 55.576 58.268 55.000 58.404 54.288 58.404 C 53.996 58.404 53.704 58.404 53.412 58.404 C 53.412 60.729 53.412 63.053 53.412 65.378 C 52.325 65.378 51.238 65.378 50.151 65.378 Z"/>
<path id="S6" fill="#25657f" fill-rule="evenodd" stroke="none" d="M 62.305 60.468 C 62.305 57.816 62.305 55.163 62.305 52.510 C 62.305 51.704 62.271 51.191 62.204 50.970 C 62.142 50.741 62.010 50.627 61.809 50.627 C 61.639 50.627 61.507 50.720 61.414 50.905 C 61.326 51.084 61.282 51.619 61.282 52.510 C 61.282 55.206 61.282 57.901 61.282 60.597 C 61.282 61.602 61.311 62.223 61.368 62.458 C 61.429 62.693 61.569 62.811 61.786 62.811 C 62.008 62.811 62.150 62.675 62.212 62.404 C 62.274 62.133 62.305 61.488 62.305 60.468 M 65.566 55.238 C 65.566 56.225 65.566 57.213 65.566 58.201 C 65.566 59.941 65.535 61.174 65.473 61.902 C 65.416 62.622 65.230 63.282 64.915 63.881 C 64.605 64.480 64.184 64.940 63.653 65.260 C 63.121 65.581 62.501 65.742 61.794 65.742 C 61.122 65.742 60.518 65.592 59.981 65.293 C 59.449 64.986 59.021 64.530 58.695 63.923 C 58.370 63.317 58.176 62.658 58.114 61.944 C 58.052 61.231 58.021 59.983 58.021 58.201 C 58.021 57.213 58.021 56.225 58.021 55.238 C 58.021 53.498 58.050 52.267 58.106 51.547 C 58.168 50.820 58.354 50.157 58.664 49.558 C 58.979 48.959 59.403 48.499 59.935 48.178 C 60.466 47.857 61.086 47.696 61.794 47.696 C 62.465 47.696 63.066 47.850 63.598 48.156 C 64.135 48.456 64.567 48.909 64.892 49.515 C 65.217 50.121 65.411 50.781 65.473 51.494 C 65.535 52.207 65.566 53.455 65.566 55.238 Z"/>
<path id="S7" fill="#25657f" fill-rule="evenodd" stroke="none" d="M 70.941 57.837 C 70.828 57.680 70.528 57.591 70.043 57.569 C 70.043 59.185 70.043 60.800 70.043 62.415 C 70.503 62.394 70.794 62.294 70.918 62.116 C 71.047 61.937 71.112 61.499 71.112 60.800 C 71.112 60.262 71.112 59.723 71.112 59.185 C 71.112 58.443 71.055 57.994 70.941 57.837 M 70.717 51.119 C 70.603 51.062 70.379 51.030 70.043 51.023 C 70.043 52.307 70.043 53.590 70.043 54.874 C 70.182 54.867 70.291 54.863 70.368 54.863 C 70.688 54.863 70.892 54.756 70.980 54.542 C 71.068 54.321 71.112 53.697 71.112 52.670 C 71.112 52.128 71.076 51.750 71.003 51.537 C 70.931 51.315 70.836 51.176 70.717 51.119 M 66.782 65.378 C 66.782 59.606 66.782 53.833 66.782 48.060 C 67.866 48.060 68.951 48.060 70.035 48.060 C 71.063 48.060 71.840 48.171 72.367 48.392 C 72.899 48.613 73.327 49.062 73.653 49.739 C 73.978 50.410 74.141 51.494 74.141 52.991 C 74.141 54.004 74.024 54.710 73.792 55.109 C 73.565 55.509 73.113 55.815 72.436 56.029 C 73.190 56.264 73.702 56.657 73.970 57.206 C 74.239 57.748 74.373 58.582 74.373 59.709 C 74.373 60.244 74.373 60.779 74.373 61.313 C 74.373 62.483 74.275 63.349 74.079 63.913 C 73.888 64.476 73.580 64.861 73.157 65.068 C 72.733 65.275 71.866 65.378 70.554 65.378 C 69.297 65.378 68.039 65.378 66.782 65.378 Z"/>
<path id="S8" fill="#25657f" fill-rule="evenodd" stroke="none" d="M 83.505 65.378 C 82.416 65.378 81.326 65.378 80.237 65.378 C 80.237 60.757 80.237 56.136 80.237 51.515 C 79.919 51.515 79.601 51.515 79.284 51.515 C 79.284 54.785 79.284 58.054 79.284 61.324 C 79.284 62.615 79.162 63.542 78.920 64.105 C 78.682 64.669 78.318 65.022 77.828 65.164 C 77.337 65.307 76.555 65.378 75.481 65.378 C 75.310 65.378 75.140 65.378 74.969 65.378 C 74.969 64.383 74.969 63.389 74.969 62.394 C 75.367 62.394 75.641 62.326 75.790 62.190 C 75.940 62.055 76.015 61.591 76.015 60.800 C 76.015 56.550 76.015 52.300 76.015 48.049 C 78.512 48.050 81.009 48.050 83.505 48.049 C 83.505 53.826 83.505 59.602 83.505 65.378 Z"/>
<path id="S9" fill="#25657f" fill-rule="evenodd" stroke="none" d="M 84.807 48.060 C 86.619 48.060 88.432 48.060 90.244 48.060 C 90.244 49.215 90.244 50.371 90.244 51.526 C 89.519 51.526 88.793 51.526 88.068 51.526 C 88.068 52.621 88.068 53.715 88.068 54.810 C 88.747 54.810 89.426 54.810 90.105 54.810 C 90.105 55.908 90.105 57.006 90.105 58.104 C 89.426 58.104 88.747 58.104 88.068 58.104 C 88.068 59.374 88.068 60.643 88.068 61.912 C 88.866 61.912 89.663 61.912 90.461 61.912 C 90.461 63.068 90.461 64.223 90.461 65.378 C 88.576 65.378 86.691 65.378 84.807 65.378 C 84.807 59.606 84.807 53.833 84.807 48.060 Z"/>
<path id="S10" fill="#25657f" fill-rule="evenodd" stroke="none" d="M 98.897 48.060 C 98.896 53.833 98.896 59.606 98.897 65.378 C 97.809 65.378 96.722 65.378 95.635 65.378 C 95.635 62.954 95.635 60.529 95.635 58.104 C 95.310 58.104 94.985 58.104 94.659 58.104 C 94.659 60.529 94.659 62.954 94.659 65.378 C 93.572 65.378 92.485 65.378 91.398 65.378 C 91.398 59.606 91.398 53.833 91.398 48.060 C 92.485 48.060 93.572 48.060 94.659 48.060 C 94.659 50.125 94.659 52.189 94.659 54.254 C 94.985 54.254 95.310 54.254 95.635 54.254 C 95.635 52.189 95.635 50.125 95.635 48.060 C 96.722 48.060 97.809 48.060 98.897 48.060 Z"/>
<path id="S11" fill="#25657f" fill-rule="evenodd" stroke="none" d="M 107.487 65.378 C 106.578 65.378 105.669 65.378 104.760 65.378 C 104.760 62.750 104.760 60.123 104.760 57.495 C 104.195 60.123 103.629 62.750 103.064 65.378 C 102.111 65.378 101.158 65.378 100.206 65.378 C 100.206 59.602 100.206 53.826 100.206 48.049 C 101.114 48.050 102.023 48.050 102.932 48.049 C 102.932 50.656 102.932 53.262 102.932 55.869 C 103.541 53.262 104.151 50.656 104.760 48.049 C 105.669 48.050 106.578 48.050 107.487 48.049 C 107.487 53.826 107.487 59.602 107.487 65.378 Z"/>
<path id="S12" fill="#25657f" fill-rule="evenodd" stroke="none" d="M 108.788 48.060 C 110.601 48.060 112.413 48.060 114.226 48.060 C 114.226 49.215 114.226 50.371 114.226 51.526 C 113.500 51.526 112.775 51.526 112.049 51.526 C 112.049 52.621 112.049 53.715 112.049 54.810 C 112.728 54.810 113.407 54.810 114.086 54.810 C 114.086 55.908 114.086 57.006 114.086 58.104 C 113.407 58.104 112.728 58.104 112.049 58.104 C 112.049 59.374 112.049 60.643 112.049 61.912 C 112.847 61.912 113.645 61.912 114.443 61.912 C 114.443 63.068 114.443 64.223 114.443 65.378 C 112.558 65.378 110.673 65.378 108.788 65.378 C 108.788 59.606 108.788 53.833 108.788 48.060 Z"/>
</g>
</svg>
