<?xml version="1.0" encoding="utf-8"?>
<!-- Generator: Moho 14.1 build 20231027 -->
<!DOCTYPE svg PUBLIC "-//W3C//DTD SVG 1.1//EN" "http://www.w3.org/Graphics/SVG/1.1/DTD/svg11.dtd">
<svg version="1.1" id="Frame_0" xmlns="http://www.w3.org/2000/svg" xmlns:xlink="http://www.w3.org/1999/xlink" width="180px" height="122px">
<path id="S1" fill="#000000" fill-rule="evenodd" stroke="none" d="M 88.112 13.276 C 101.967 12.858 113.088 5.048 122.722 6.957 C 135.321 9.452 141.220 21.390 149.470 24.948 C 157.149 28.259 165.499 26.370 169.890 30.609 C 177.491 37.946 179.143 49.461 176.789 57.745 C 175.670 61.684 170.714 63.504 167.937 67.692 C 163.945 73.711 165.015 83.630 158.195 90.801 C 148.436 101.063 132.285 111.729 112.045 112.048 C 98.976 112.254 86.612 97.685 68.319 95.312 C 56.429 93.770 45.350 102.254 38.006 97.985 C 31.331 94.105 33.542 84.060 29.358 80.644 C 23.415 75.794 14.990 78.653 10.761 74.984 C 4.847 69.852 2.216 62.295 2.559 55.922 C 2.852 50.486 6.281 45.080 11.022 40.375 C 15.277 36.153 22.628 35.177 29.227 30.287 C 35.924 25.326 38.515 12.552 49.725 8.519 C 59.886 4.864 72.879 13.734 88.112 13.276 Z"/>
<path id="S2" fill="#000000" fill-rule="evenodd" stroke="none" d="M 5.000 117.497 C 5.002 117.493 28.327 77.656 28.330 77.652 C 28.331 77.653 41.844 80.116 45.076 84.473 C 47.565 87.828 46.783 98.291 46.783 98.292 C 46.779 98.294 5.004 117.495 5.000 117.497 Z"/>
</svg>
