<?xml version="1.0" encoding="utf-8"?>
<!-- Generator: Moho 14.1 build 20231027 -->
<!DOCTYPE svg PUBLIC "-//W3C//DTD SVG 1.1//EN" "http://www.w3.org/Graphics/SVG/1.1/DTD/svg11.dtd">
<svg version="1.1" id="Frame_0" xmlns="http://www.w3.org/2000/svg" xmlns:xlink="http://www.w3.org/1999/xlink" width="64px" height="64px">
<path id="S1" fill="#61a63e" fill-rule="evenodd" stroke="#ffffff" stroke-width="1" stroke-linecap="round" stroke-linejoin="round" d="M 25.586 42.779 C 21.914 42.433 16.941 45.148 13.373 44.212 C 9.825 43.282 4.440 40.559 3.487 37.017 C 2.945 34.999 6.042 32.511 5.776 30.439 C 5.542 28.617 2.871 27.092 2.432 25.308 C 2.030 23.679 2.403 21.331 2.925 19.736 C 3.520 17.915 5.637 16.102 6.261 14.291 C 6.826 12.651 5.987 9.997 6.943 8.549 C 8.281 6.523 11.698 5.138 14.097 4.764 C 16.277 4.425 19.143 6.160 21.346 6.017 C 24.352 5.822 27.890 3.168 30.890 2.896 C 33.060 2.700 35.923 3.707 38.101 3.776 C 40.598 3.855 44.084 2.370 46.414 3.271 C 48.759 4.178 50.090 8.005 52.258 9.279 C 53.813 10.193 56.640 9.801 58.033 10.945 C 59.566 12.204 60.771 14.876 61.019 16.843 C 61.274 18.869 59.994 21.496 59.533 23.485 C 59.199 24.927 58.475 26.807 58.386 28.284 C 58.298 29.738 59.546 31.784 58.936 33.106 C 57.990 35.158 54.653 36.394 52.466 36.960 C 50.565 37.453 47.731 36.049 45.921 36.812 C 43.715 37.743 42.166 40.951 40.587 42.751 C 39.610 43.863 38.771 46.014 37.371 46.493 C 34.023 47.638 29.277 43.128 25.586 42.779 Z"/>
<path id="S2" fill="#61a63e" fill-rule="evenodd" stroke="#ffffff" stroke-width="1" stroke-linecap="round" stroke-linejoin="round" d="M 47.663 38.395 C 48.796 38.287 49.532 39.441 50.283 40.225 C 50.988 40.961 51.851 41.701 51.965 42.835 C 52.088 44.078 51.475 45.194 50.693 45.992 C 49.910 46.790 48.802 47.552 47.663 47.275 C 46.587 47.013 46.391 45.659 45.658 44.899 C 44.954 44.169 43.408 43.967 43.362 42.835 C 43.315 41.687 44.808 41.307 45.522 40.566 C 46.241 39.821 46.582 38.498 47.663 38.395 Z"/>
<path id="S3" fill="#61a63e" fill-rule="evenodd" stroke="#ffffff" stroke-width="1" stroke-linecap="round" stroke-linejoin="round" d="M 44.897 49.740 C 45.847 49.704 46.207 50.912 46.833 51.548 C 47.480 52.205 48.524 52.612 48.704 53.610 C 48.896 54.673 48.275 55.657 47.585 56.355 C 46.894 57.052 45.921 57.691 44.897 57.480 C 44.119 57.320 43.827 56.474 43.302 55.945 C 42.552 55.189 41.065 54.782 41.089 53.610 C 41.113 52.509 42.534 52.196 43.234 51.480 C 43.801 50.900 44.034 49.773 44.897 49.740 Z"/>
<path id="S4" fill="#61a63e" fill-rule="evenodd" stroke="#ffffff" stroke-width="1" stroke-linecap="round" stroke-linejoin="round" d="M 55.686 53.073 C 56.969 53.093 58.175 53.945 58.248 55.340 C 58.329 56.891 57.044 58.085 55.618 58.085 C 54.192 58.085 52.891 56.890 52.987 55.340 C 53.076 53.903 54.364 53.053 55.686 53.073 Z"/>
<path id="S5" fill="#61a63e" fill-rule="evenodd" stroke="#ffffff" stroke-width="1" stroke-linecap="round" stroke-linejoin="round" d="M 59.171 59.922 C 59.958 59.922 60.593 60.557 60.593 61.344 C 60.593 62.131 59.958 62.766 59.171 62.766 C 58.383 62.766 57.748 62.131 57.748 61.344 C 57.748 60.557 58.383 59.922 59.171 59.922 Z"/>
</svg>
