<svg xmlns="http://www.w3.org/2000/svg" version="1.1" xmlns:xlink="http://www.w3.org/1999/xlink" xmlns:svgjs="http://svgjs.dev/svgjs" width="32px" height="32px"><svg version="1.1" id="SvgjsSvg1007" xmlns="http://www.w3.org/2000/svg" xmlns:xlink="http://www.w3.org/1999/xlink" width="32px" height="32px">
<path id="SvgjsPath1006" fill="#61a63e" fill-rule="evenodd" stroke="none" d="M 22.624 26.201 C 22.771 25.989 22.880 25.655 22.966 25.411 C 23.077 25.099 23.197 24.673 23.260 24.348 C 23.338 23.950 23.417 23.412 23.411 23.007 C 23.407 22.728 23.363 22.353 23.288 22.084 C 23.200 21.765 22.990 21.373 22.845 21.076 C 22.638 20.650 22.098 19.685 22.098 19.685 C 22.098 19.685 21.832 20.526 21.737 20.891 C 21.622 21.334 21.496 21.931 21.409 22.379 C 21.327 22.796 21.194 23.350 21.170 23.774 C 21.149 24.141 21.157 24.637 21.234 24.996 C 21.308 25.342 21.449 25.812 21.660 26.097 C 21.795 26.280 22.020 26.600 22.247 26.579 C 22.404 26.564 22.533 26.333 22.624 26.201 Z"></path>
<path id="SvgjsPath1005" fill="#61a63e" fill-rule="evenodd" stroke="none" d="M 25.517 30.200 C 25.688 29.866 25.751 29.352 25.795 28.979 C 25.862 28.409 25.879 27.634 25.796 27.067 C 25.716 26.523 25.488 25.816 25.272 25.311 C 25.140 25.001 24.897 24.621 24.728 24.329 C 24.487 23.913 24.167 23.357 23.899 22.957 C 23.704 22.668 23.208 22.022 23.208 22.022 C 23.208 22.022 23.052 22.963 23.009 23.370 C 22.955 23.881 22.908 24.565 22.902 25.079 C 22.896 25.657 22.889 26.434 22.983 27.005 C 23.071 27.546 23.284 28.252 23.491 28.759 C 23.684 29.228 23.933 29.890 24.292 30.247 C 24.489 30.443 24.823 30.768 25.094 30.708 C 25.284 30.665 25.426 30.377 25.517 30.200 Z"></path>
<path id="SvgjsPath1004" fill="#61a63e" fill-rule="evenodd" stroke="none" d="M 4.639 1.304 C 4.639 1.304 4.002 2.265 3.799 2.715 C 3.215 4.007 2.538 5.834 2.463 7.250 C 2.367 9.055 2.807 11.546 3.614 13.163 C 4.423 14.786 6.212 16.562 7.660 17.655 C 9.053 18.706 11.272 19.546 12.882 20.223 C 13.986 20.688 15.474 21.304 16.643 21.568 C 17.504 21.763 18.893 22.453 19.569 21.884 C 19.849 21.649 19.964 21.030 19.825 20.691 C 19.628 20.212 18.790 20.066 18.335 19.818 C 17.598 19.418 16.584 18.945 15.834 18.571 C 14.979 18.145 13.672 17.815 12.985 17.152 C 12.703 16.880 12.405 16.415 12.306 16.036 C 12.238 15.773 12.168 15.354 12.320 15.129 C 12.556 14.779 13.225 14.699 13.645 14.661 C 14.332 14.598 15.247 14.877 15.907 15.080 C 16.614 15.297 17.527 15.698 18.163 16.074 C 18.750 16.421 19.475 16.984 19.971 17.452 C 20.692 18.130 21.558 19.144 22.105 19.969 C 22.589 20.699 23.002 21.805 23.428 22.569 C 23.966 23.535 24.765 24.775 25.348 25.715 C 25.795 26.437 26.359 27.422 26.855 28.112 C 27.219 28.618 27.581 29.510 28.167 29.725 C 28.558 29.868 29.290 29.862 29.543 29.531 C 29.805 29.188 29.457 28.523 29.350 28.104 C 29.098 27.121 28.418 25.926 28.069 24.973 C 27.627 23.768 27.229 22.094 26.754 20.901 C 26.411 20.043 25.913 18.907 25.434 18.117 C 24.970 17.354 24.232 16.412 23.638 15.746 C 22.965 14.990 21.991 14.046 21.197 13.418 C 20.434 12.814 19.328 12.121 18.479 11.644 C 17.442 11.062 15.970 10.459 14.897 9.947 C 13.700 9.375 12.050 8.711 10.913 8.028 C 9.886 7.411 8.543 6.512 7.691 5.669 C 6.844 4.832 5.876 3.541 5.310 2.493 C 5.119 2.139 4.639 1.304 4.639 1.304 Z"></path>
</svg><style>@media (prefers-color-scheme: light) { :root { filter: none; } }
@media (prefers-color-scheme: dark) { :root { filter: none; } }
</style></svg>